<?xml version="1.0" encoding="UTF-8"?>
<svg id="Layer_2" data-name="Layer 2" xmlns="http://www.w3.org/2000/svg" viewBox="0 0 36.25 36.25">
  <defs>
    <style>
      .cls-1 {
        fill: #333;
        stroke: #000;
      }

      .cls-1, .cls-2 {
        stroke-width: .25px;
      }

      .cls-1, .cls-2, .cls-3, .cls-4 {
        stroke-miterlimit: 10;
      }

      .cls-2, .cls-3, .cls-4 {
        fill: #f2f2f2;
        stroke: #f2f2f2;
      }

      .cls-3 {
        stroke-width: .75px;
      }

      .cls-4 {
        stroke-linecap: round;
        stroke-width: 2px;
      }
    </style>
  </defs>
  <g id="Layer_1-2" data-name="Layer 1">
    <g>
      <circle class="cls-1" cx="18.12" cy="18.12" r="18"/>
      <line class="cls-4" x1="8.24" y1="28.1" x2="20.97" y2="15.37"/>
      <path class="cls-3" d="m20.7,8.44l2.73,2.04s.05.02.07.01l3.23-1.09c.06-.02.12.04.1.1l-1.09,3.23s0,.05.01.07l2.04,2.73s0,.12-.06.12l-3.41-.04s-.05.01-.06.03l-1.97,2.78c-.04.05-.11.04-.13-.02l-1.01-3.25s-.03-.04-.05-.05l-3.25-1.01c-.06-.02-.07-.1-.02-.13l2.78-1.97s.03-.04.03-.06l-.04-3.41c0-.06.07-.1.12-.06Z"/>
      <polygon class="cls-2" points="14.26 13.56 13.93 13.73 13.84 14.2 13.49 13.75 12.89 13.67 13.53 13.42 13.63 12.93 13.81 13.38 14.26 13.56"/>
      <polygon class="cls-2" points="17.02 6.99 16.69 7.16 16.59 7.63 16.24 7.18 15.64 7.1 16.28 6.85 16.38 6.36 16.56 6.81 17.02 6.99"/>
      <polygon class="cls-2" points="30.72 17.38 30.39 17.55 30.29 18.02 29.94 17.57 29.34 17.49 29.98 17.24 30.08 16.74 30.26 17.2 30.72 17.38"/>
      <polygon class="cls-2" points="29.72 7.37 29.39 7.53 29.29 8 28.94 7.56 28.34 7.47 28.98 7.23 29.08 6.73 29.26 7.19 29.72 7.37"/>
      <polygon class="cls-2" points="24.52 21.82 24.19 21.99 24.1 22.46 23.74 22.01 23.15 21.93 23.79 21.68 23.89 21.19 24.07 21.64 24.52 21.82"/>
    </g>
  </g>
</svg>