<?xml version="1.0" encoding="UTF-8"?>
<svg id="Layer_2" data-name="Layer 2" xmlns="http://www.w3.org/2000/svg" viewBox="0 0 33 33">
  <defs>
    <style>
      .cls-1 {
        fill: #e6e6e6;
        stroke: #e6e6e6;
        stroke-miterlimit: 10;
      }

      .cls-2 {
        fill: #666;
        stroke: #666;
        stroke-linecap: round;
        stroke-linejoin: round;
      }
    </style>
  </defs>
  <g id="Layer_1-2" data-name="Layer 1">
    <g>
      <rect class="cls-2" x=".5" y=".5" width="32" height="32"/>
      <path class="cls-1" d="m23.8,16.41c0-1.46,1.65-2.69,3.94-3.09-.29-1.07-.74-2.08-1.3-3-1.77,1.17-3.6,1.4-4.52.44-.91-.95-.71-2.78.34-4.59-.86-.51-1.79-.9-2.77-1.17-.37,2.38-1.57,4.12-2.99,4.12s-2.61-1.74-2.99-4.12c-1.01.27-1.97.68-2.85,1.22,1.04,1.8,1.23,3.61.33,4.54s-2.71.73-4.45-.39c-.56.91-.98,1.91-1.28,2.96,2.23.41,3.83,1.64,3.83,3.07s-1.69,2.72-4,3.11c.25,1.12.63,2.16,1.16,3.13,1.84-1.29,3.76-1.59,4.73-.58.98,1.02.68,3.07-.63,5.02.96.63,2.03,1.11,3.15,1.41.37-2.38,1.57-4.12,2.99-4.12s2.61,1.74,2.99,4.12c1.1-.3,2.13-.77,3.08-1.36-1.32-1.96-1.65-4.03-.66-5.07s2.94-.69,4.79.63c.54-.97.95-2.04,1.2-3.16-2.37-.38-4.1-1.63-4.1-3.13Zm-7.3,7.63c-3.88,0-7.03-3.27-7.03-7.29s3.15-7.29,7.03-7.29,7.03,3.27,7.03,7.29-3.15,7.29-7.03,7.29Z"/>
    </g>
  </g>
</svg>