<?xml version="1.0" encoding="UTF-8"?>
<svg id="Layer_2" data-name="Layer 2" xmlns="http://www.w3.org/2000/svg" viewBox="0 0 33 33">
  <defs>
    <style>
      .cls-1 {
        fill: none;
        stroke: #000;
        stroke-miterlimit: 10;
      }
    </style>
  </defs>
  <g id="Layer_1-2" data-name="Layer 1">
    <g>
      <path class="cls-1" d="m32.5,16.5c0,4.27-1.67,8.15-4.4,11.02-2.73,2.88-6.54,4.72-10.77,4.94-.06,0-.12.01-.17.01-.22.02-.44.03-.66.03h-.15c-4.51-.04-8.57-1.95-11.45-4.98-2.73-2.87-4.4-6.75-4.4-11.02s1.65-8.09,4.34-10.96C7.72,2.47,11.81.54,16.35.5h.15c.27,0,.53.01.79.04.04,0,.09.01.13.01,4.69.27,8.85,2.54,11.6,5.99,2.18,2.73,3.48,6.19,3.48,9.96Z"/>
      <path class="cls-1" d="m28.2,16.5c0,3.56-.85,6.85-2.29,9.51-1.98,3.66-5.06,6.11-8.58,6.45-.06,0-.12.01-.17.01-.22.02-.44.03-.66.03h-.15s-.03,0-.04-.01c-3.78-.08-7.13-2.61-9.22-6.48-1.44-2.66-2.29-5.95-2.29-9.51s.79-6.62,2.15-9.23C9.03,3.24,12.44.59,16.31.51c.01-.01.03-.01.04-.01h.15s.1.01.14.01c.22-.01.43,0,.65.03,3.92.35,7.3,3.34,9.22,7.68,1.07,2.42,1.69,5.25,1.69,8.28Z"/>
      <path class="cls-1" d="m22,16.5c0,2.76-.25,5.35-.68,7.62-.94,4.97-2.78,8.35-4.89,8.38h-.08s-.03,0-.04-.01c-2.08-.09-3.89-3.43-4.82-8.32-.44-2.28-.69-4.89-.69-7.67,0-2.52.2-4.9.56-7.02.9-5.25,2.78-8.88,4.95-8.97.01-.01.03-.01.04-.01h.15s.1.01.14.01c2.19.27,4.06,4.13,4.89,9.56.3,1.97.47,4.14.47,6.43Z"/>
      <path class="cls-1" d="m29.02,6.54c-.78.63-1.62,1.19-2.51,1.68-1.52.84-3.2,1.47-4.98,1.85-1.29.28-2.64.43-4.03.43-2.16,0-4.23-.36-6.14-1.02-1.59-.54-3.07-1.29-4.41-2.21-.76-.53-1.46-1.1-2.11-1.73C7.72,2.47,11.81.54,16.35.5h.15c.27,0,.53.01.79.04.04,0,.09.01.13.01,4.69.27,8.85,2.54,11.6,5.99Z"/>
      <path class="cls-1" d="m17.33,32.46c-.27.03-.55.04-.83.04h-.15c-4.51-.04-8.57-1.95-11.45-4.98.68-.55,1.41-1.06,2.19-1.51,1.35-.79,2.83-1.42,4.4-1.84,1.59-.44,3.27-.67,5.01-.67s3.29.21,4.82.62c1.64.43,3.19,1.07,4.59,1.89.78.45,1.51.96,2.19,1.51-2.73,2.88-6.54,4.72-10.77,4.94Z"/>
      <line class="cls-1" y1="16.5" x2="32" y2="16.5"/>
    </g>
  </g>
</svg>